Land_normalized_Motion_pl09
version=1
nRows=25
nColumns=43
inDegrees=yes
endheader
time		pelvis_tilt		pelvis_list		pelvis_rotation		pelvis_tx		pelvis_ty		pelvis_tz		hip_flexion_r		hip_adduction_r		hip_rotation_r		knee_angle_r		ankle_angle_r		subtalar_angle_r		mtp_angle_r		hip_flexion_l		hip_adduction_l		hip_rotation_l		knee_angle_l		ankle_angle_l		subtalar_angle_l		mtp_angle_l		lumbar_extension		lumbar_bending		lumbar_rotation		neck_flexion		neck_lateral_bending		neck_rotation		arm_flex_r		arm_add_r		arm_rot_r		elbow_flex_r		pro_sup_r		wrist_flex_r		wrist_dev_r		hand_finger_flex_r		arm_flex_l		arm_add_l		arm_rot_l		elbow_flex_l		pro_sup_l		wrist_flex_l		wrist_dev_l		hand_finger_flex_l		
1.485833		-3.896821		21.969555		95.449470		-0.004775		0.474759		0.527605		68.517452		-7.789207		-0.788829		-133.977171		19.852022		-3.172747		25.319805		65.284516		-3.030899		-3.827409		-130.535644		22.676204		-18.479428		19.381260		-76.787578		-1.590274		-3.364991		10.935783		1.233017		-9.103426		65.503324		-30.819558		19.412724		49.157045		101.869798		-26.036907		8.520458		51.824826		63.529474		-25.321035		15.148457		63.594010		128.196311		-37.215940		5.152107		90.000210		
1.488535		-3.949079		21.743905		95.503552		-0.004830		0.469469		0.526697		69.328241		-7.911321		-0.641214		-134.751982		20.268352		-2.922706		25.419401		66.018716		-3.119930		-3.967667		-131.234254		23.094567		-18.433325		19.341416		-76.662276		-1.512348		-3.293855		11.201400		1.219391		-9.175596		67.802212		-30.767980		20.821041		49.350482		102.332114		-26.078330		8.504087		51.778035		65.701286		-25.553054		17.220119		63.961889		128.473448		-36.938432		5.114565		90.000210		
1.491237		-4.028244		21.553674		95.539234		-0.004795		0.464435		0.525785		70.087720		-8.006839		-0.441265		-135.501935		20.674016		-2.606894		25.533137		66.676886		-3.224380		-4.103357		-131.901445		23.520688		-18.302694		19.297221		-76.584132		-1.471998		-3.251566		11.493640		1.212538		-9.237236		70.096462		-30.679950		22.285234		49.508224		102.730367		-26.218073		8.467425		51.700784		67.893600		-25.809436		19.321806		64.349213		128.610066		-36.688807		5.198027		90.000210		
1.493939		-4.220837		21.445022		95.576347		-0.004695		0.459751		0.524907		70.754061		-8.103106		-0.081443		-136.236404		21.103617		-2.061913		25.739200		67.168677		-3.312831		-4.330150		-132.520665		24.070490		-17.953884		19.101125		-76.616356		-1.494211		-3.344142		11.856043		1.187823		-9.255473		72.494573		-30.561321		24.140647		49.566685		102.512087		-27.004417		8.339260		51.685317		70.152743		-26.192436		21.643936		64.813566		128.121763		-36.888605		5.973108		90.000210		
1.496641		-4.342106		21.327884		95.607057		-0.004539		0.455226		0.524037		71.396931		-8.154257		0.193082		-136.911554		21.449501		-1.714285		25.898652		67.698422		-3.424635		-4.452509		-133.132625		24.481267		-17.699695		18.965836		-76.635323		-1.483934		-3.365482		12.224241		1.202786		-9.306895		74.796723		-30.382182		25.690496		49.658226		102.507357		-27.454556		8.218868		51.727167		72.392144		-26.464230		23.748955		65.174362		128.046296		-36.916962		6.311681		90.000210		
1.499343		-4.427415		21.217694		95.625343		-0.004346		0.450784		0.523099		72.027082		-8.177094		0.396403		-137.591473		21.728087		-1.473966		25.998055		68.229838		-3.532224		-4.482223		-133.753903		24.793401		-17.415469		18.967525		-76.636438		-1.484011		-3.284412		12.507909		1.236326		-9.400402		77.000157		-30.246785		27.023295		49.735552		102.957818		-27.460842		8.134880		51.739939		74.584687		-26.576680		25.665455		65.497994		128.357859		-36.625084		6.178674		90.000210		
1.502045		-4.550622		21.139095		95.657823		-0.004214		0.446536		0.522197		72.611679		-8.204971		0.669418		-138.253673		22.005366		-1.135751		26.112891		68.708461		-3.626474		-4.534291		-134.357990		25.151761		-16.973232		18.990861		-76.671339		-1.479524		-3.249546		12.801894		1.256259		-9.490284		79.199989		-30.069115		28.397700		49.778650		103.313307		-27.569053		8.024701		51.735692		76.763923		-26.685306		27.522320		65.821201		128.512835		-36.414777		6.194223		90.000210		
1.504747		-4.790826		21.142200		95.724853		-0.004176		0.442681		0.521378		73.092933		-8.279916		1.134414		-138.885250		22.297683		-0.519294		26.325086		69.022863		-3.711704		-4.676262		-134.919485		25.655369		-16.092954		19.026891		-76.810001		-1.492246		-3.347802		13.118036		1.275094		-9.476650		81.518730		-29.874840		30.162537		49.704854		103.202770		-28.150705		7.809243		51.781848		78.984951		-26.768667		29.388104		66.033705		128.184950		-36.692640		6.762346		90.000210		
1.507449		-4.852139		20.975472		95.795388		-0.004131		0.438551		0.520446		73.737822		-8.316660		1.325852		-139.491980		22.513577		-0.322028		26.431889		69.625796		-3.804085		-4.669244		-135.506345		25.887013		-15.850500		19.057084		-76.754413		-1.403392		-3.306954		13.460004		1.257206		-9.632022		83.582095		-29.567343		31.213126		49.746031		103.416290		-28.162686		7.696910		51.825310		81.086217		-26.868571		31.056250		66.320465		128.613129		-36.629981		6.569395		90.000210		
1.510152		-4.966760		20.849510		95.879537		-0.004215		0.434620		0.519541		74.348403		-8.394496		1.592367		-140.093227		22.694160		-0.014377		26.550968		70.156583		-3.876113		-4.695560		-136.073605		26.118176		-15.381912		19.141026		-76.730695		-1.329168		-3.270104		13.736590		1.260065		-9.699963		85.688120		-29.324037		32.457285		49.694041		103.692781		-28.133368		7.571615		51.818858		83.176321		-26.827795		32.625764		66.469940		129.010655		-36.705736		6.433183		90.000210		
1.512854		-5.171233		20.817508		95.979668		-0.004401		0.431077		0.518748		74.840104		-8.508960		2.008724		-140.662047		22.918595		0.597039		26.809190		70.510677		-3.940554		-4.799828		-136.593803		26.525638		-14.517280		19.358860		-76.821626		-1.270742		-3.323563		14.044932		1.242087		-9.683874		87.892172		-29.084069		34.045520		49.554434		103.497318		-28.469453		7.317433		51.744660		85.278088		-26.762334		34.237321		66.505257		129.118024		-37.588354		6.675181		90.000210		
1.515556		-5.207655		20.631933		96.045850		-0.004476		0.427307		0.517848		75.478344		-8.565178		2.155067		-141.194303		23.048420		0.748903		26.898238		71.137920		-4.057694		-4.795791		-137.130644		26.621785		-14.333174		19.442735		-76.732925		-1.161006		-3.254383		14.354402		1.206994		-9.847649		89.809729		-28.686332		34.864773		49.519623		103.747868		-28.342959		7.228903		51.710521		87.295990		-26.737359		35.646705		66.609991		129.636647		-37.591624		6.362310		90.000210		
1.518258		-5.314315		20.524470		96.098772		-0.004632		0.423802		0.516975		76.046887		-8.656558		2.380772		-141.720571		23.179861		1.018312		27.007158		71.626484		-4.164181		-4.824788		-137.632794		26.755464		-13.927019		19.588705		-76.721251		-1.103050		-3.183579		14.592880		1.205574		-9.913011		91.771020		-28.380570		35.894004		49.416598		104.010773		-28.208030		7.097421		51.612817		89.284993		-26.644616		37.064641		66.707850		130.093416		-37.753432		6.121929		90.000210		
1.520960		-5.433234		20.440834		96.134175		-0.004687		0.420561		0.516133		76.554029		-8.728696		2.616691		-142.211491		23.324123		1.310645		27.122761		72.053274		-4.297233		-4.863892		-138.101108		26.905442		-13.480571		19.769307		-76.746328		-1.072791		-3.140013		14.878677		1.182871		-9.987495		93.687496		-28.014487		36.844591		49.281058		104.194978		-28.113398		6.944000		51.456577		91.256376		-26.545659		38.409166		66.738468		130.491572		-37.981525		5.935610		90.000210		
1.523662		-5.562269		20.382573		96.140639		-0.004724		0.417541		0.515310		77.011222		-8.783178		2.861908		-142.669507		23.473573		1.575855		27.235119		72.426435		-4.449557		-4.912466		-138.543018		27.034391		-13.021784		19.971308		-76.797413		-1.071107		-3.099398		15.148799		1.172657		-10.061530		95.549812		-27.615255		37.729486		49.132354		104.332990		-28.039004		6.776819		51.257781		93.195501		-26.450479		39.723935		66.753131		130.854760		-38.198628		5.779668		90.000210		
1.526364		-5.723262		20.358779		96.117269		-0.004720		0.414755		0.514482		77.417685		-8.838474		3.122615		-143.109493		23.637482		1.827814		27.355239		72.712628		-4.612859		-4.971143		-138.951099		27.157010		-12.509675		20.217271		-76.884704		-1.122340		-3.054870		15.379684		1.175111		-10.124874		97.377581		-27.232739		38.610776		48.944565		104.410745		-27.996786		6.587085		51.001749		95.107000		-26.355972		41.058917		66.799177		131.180543		-38.437352		5.671674		90.000210		
1.529066		-5.881672		20.342667		96.084565		-0.004678		0.412141		0.513673		77.772372		-8.864570		3.384044		-143.517655		23.812998		2.027414		27.468838		72.980472		-4.796128		-5.035856		-139.344989		27.259286		-12.010313		20.472816		-76.973542		-1.180052		-3.024865		15.613967		1.180470		-10.198940		99.128165		-26.798733		39.399870		48.752298		104.459910		-27.978667		6.401806		50.727819		96.967724		-26.236611		42.278007		66.777387		131.489354		-38.599867		5.602182		90.000210		
1.531768		-6.051739		20.339857		96.035115		-0.004599		0.409704		0.512858		78.087895		-8.887781		3.640004		-143.906094		24.008924		2.199473		27.581422		73.197675		-4.986744		-5.097029		-139.716582		27.355678		-11.485432		20.749432		-77.070590		-1.264942		-2.995376		15.813071		1.198299		-10.272842		100.828917		-26.367076		40.161857		48.547471		104.501492		-27.975070		6.211560		50.435892		98.781825		-26.107278		43.440855		66.751998		131.807509		-38.682955		5.560944		90.000210		
1.534470		-6.176005		20.280047		95.993487		-0.004700		0.407426		0.512078		78.416862		-8.952730		3.848536		-144.238393		24.185690		2.269370		27.651237		73.471224		-5.139504		-5.159026		-140.044819		27.409264		-11.158915		20.909394		-77.104863		-1.295632		-2.860387		16.064799		1.160302		-10.307895		102.368921		-25.882596		40.451869		48.323293		104.553430		-28.013795		6.108364		50.236328		100.317443		-25.724137		44.040096		66.640565		132.036160		-38.664991		5.525967		90.000210		
1.537172		-6.362376		20.318044		95.921331		-0.004462		0.405241		0.511201		78.642529		-8.953833		4.083650		-144.611206		24.457901		2.471539		27.773591		73.585307		-5.357941		-5.182133		-140.410111		27.530771		-10.471474		21.237617		-77.216716		-1.430251		-2.885049		16.111805		1.247592		-10.427100		104.019625		-25.496647		41.435020		48.148374		104.675262		-27.974669		5.866788		49.929993		102.160216		-25.745366		45.359800		66.658489		132.477088		-38.555097		5.462884		90.000210		
1.539874		-6.520773		20.325217		95.879010		-0.004318		0.403180		0.510371		78.839004		-8.978231		4.314577		-144.946951		24.752546		2.662987		27.905325		73.740040		-5.562620		-5.198332		-140.752973		27.667485		-9.817943		21.607505		-77.291393		-1.511831		-2.876480		16.242969		1.297208		-10.522652		105.579216		-25.045225		42.189928		47.909374		104.655263		-28.022062		5.637861		49.584263		103.859565		-25.604349		46.351899		66.546677		132.795623		-38.475706		5.507977		90.000210		
1.542576		-6.640739		20.301009		95.847130		-0.004249		0.401185		0.509545		79.045247		-9.025072		4.495798		-145.259455		25.041325		2.852356		28.033419		73.928848		-5.736927		-5.182651		-141.082265		27.791522		-9.239971		21.973863		-77.319553		-1.556080		-2.823147		16.337122		1.339807		-10.599389		107.042046		-24.599647		42.800273		47.708689		104.593963		-28.092264		5.434190		49.256473		105.425664		-25.404990		47.141700		66.442871		133.052679		-38.404975		5.538892		90.000210		
1.545278		-6.735836		20.251413		95.818823		-0.004220		0.399305		0.508704		79.250658		-9.097403		4.646031		-145.549611		25.334058		3.057109		28.161316		74.130706		-5.897389		-5.134853		-141.389868		27.916624		-8.684393		22.343180		-77.312995		-1.580835		-2.743295		16.397747		1.375608		-10.667412		108.438496		-24.160235		43.330467		47.523666		104.503673		-28.179222		5.252330		48.932239		106.910896		-25.185472		47.819950		66.334535		133.256412		-38.360349		5.541659		90.000210		
1.547980		-6.803019		20.152877		95.807765		-0.004291		0.397503		0.507887		79.487478		-9.187102		4.770327		-145.810560		25.560327		3.180972		28.237977		74.396112		-6.025511		-5.106270		-141.669427		28.002716		-8.352476		22.533272		-77.247141		-1.563105		-2.613221		16.473597		1.368882		-10.705386		109.681954		-23.682932		43.501893		47.380950		104.478899		-28.259828		5.167494		48.731306		108.190482		-24.832278		48.118846		66.165302		133.381125		-38.335832		5.499034		90.000210		
1.550682		-6.860337		20.105550		95.797078		-0.004168		0.395636		0.506965		79.661671		-9.241096		4.908545		-146.119500		25.941706		3.576631		28.405906		74.608917		-6.191268		-4.948670		-142.007011		28.195540		-7.540882		23.005378		-77.194824		-1.565771		-2.579498		16.385187		1.449820		-10.820377		111.025487		-23.278012		44.306858		47.238133		104.341218		-28.354707		4.960002		48.306112		109.750028		-24.821573		49.113424		66.098657		133.562005		-38.368324		5.373069		90.000210		
